<?xml version="1.0" encoding="utf-8"?>
<!DOCTYPE svg PUBLIC "-//W3C//DTD SVG 20010904//EN" "http://www.w3.org/TR/2001/REC-SVG-20010904/DTD/svg10.dtd">
<svg version="1.0" xmlns="http://www.w3.org/2000/svg" width="752pt" height="683pt" viewBox="0 0 752 683" style="" preserveAspectRatio="xMidYMid meet">
<g fill="#1A3E4AFE" stroke="#1A3E4AFE">
<path d="M 22.271 220.250 C 22.448 325.438 22.921 413.075 23.323 415.000 C 23.725 416.925 25.211 424.350 26.625 431.500 C 31.659 456.953 41.311 482.969 54.931 507.800 C 57.133 511.815 59.849 516.384 60.967 517.954 C 62.085 519.524 63.000 521.145 63.000 521.557 C 63.000 523.258 83.281 549.351 90.901 557.453 C 100.331 567.480 117.151 582.978 123.233 587.244 C 126.405 589.469 129.000 591.675 129.000 592.145 C 129.000 592.615 129.381 593.000 129.847 593.000 C 130.313 593.000 134.250 595.372 138.597 598.271 C 147.034 603.898 153.869 608.196 155.500 608.900 C 156.050 609.137 159.320 611.056 162.768 613.165 C 166.215 615.274 169.313 617.000 169.653 617.000 C 169.993 617.000 173.923 618.760 178.386 620.911 C 185.583 624.381 189.453 626.096 196.500 628.943 C 197.600 629.387 199.850 630.305 201.500 630.982 C 204.900 632.376 226.934 639.735 231.500 641.000 C 282.255 655.066 331.327 660.965 386.500 659.630 C 427.235 658.645 455.638 655.337 494.151 647.093 C 506.776 644.390 528.489 637.602 550.500 629.475 C 561.243 625.508 590.309 610.849 601.713 603.646 C 611.713 597.331 627.946 585.541 633.090 580.858 C 634.515 579.561 640.027 574.527 645.339 569.672 C 674.286 543.213 699.997 502.567 713.907 461.277 C 717.597 450.321 722.026 431.823 724.028 419.000 C 725.911 406.933 725.979 399.964 725.989 217.750 L 726.000 29.000 373.975 29.000 L 21.951 29.000 22.271 220.250 M 707.000 221.326 C 707.000 337.618 706.642 400.331 705.937 407.576 C 700.675 461.651 675.227 514.972 636.050 554.005 C 590.832 599.058 526.566 627.683 447.500 637.989 C 418.632 641.752 406.757 642.464 373.500 642.428 C 320.301 642.371 280.952 637.280 237.500 624.833 C 196.271 613.022 155.070 591.813 127.500 568.205 C 118.689 560.661 102.404 543.999 95.534 535.500 C 72.968 507.584 57.570 476.813 48.489 441.490 C 41.699 415.075 42.000 425.065 42.000 225.966 L 42.000 46.000 374.500 46.000 L 707.000 46.000 707.000 221.326 "/></g>
<g fill="#FCEED4FE" stroke="#FCEED4FE">
<path d="M 42.000 225.966 C 42.000 425.035 41.699 415.036 48.481 441.496 C 52.794 458.323 58.762 474.559 66.029 489.238 C 72.496 502.300 78.745 513.000 79.906 513.000 C 80.324 513.000 80.667 513.568 80.667 514.263 C 80.667 517.383 96.739 537.942 109.204 550.767 C 131.157 573.355 152.717 588.859 182.500 603.478 C 223.743 623.721 266.134 634.914 323.356 640.668 C 344.516 642.796 399.885 643.105 419.500 641.204 C 483.048 635.045 526.230 623.654 570.250 601.439 C 646.602 562.906 697.963 489.524 705.937 407.576 C 706.642 400.331 707.000 337.618 707.000 221.326 L 707.000 46.000 374.500 46.000 L 42.000 46.000 42.000 225.966 M 694.994 231.250 C 694.989 381.964 694.778 407.894 693.487 416.458 C 684.307 477.370 652.028 531.300 602.443 568.572 C 555.482 603.871 496.826 623.838 418.500 631.186 C 397.881 633.121 345.888 632.815 324.000 630.630 C 279.236 626.162 234.848 615.575 204.045 602.020 C 199.042 599.818 194.623 598.066 194.224 598.127 C 193.826 598.187 193.725 598.167 194.000 598.081 C 194.275 597.996 190.121 595.701 184.770 592.982 C 153.851 577.271 125.699 554.932 104.768 529.500 C 100.655 524.503 94.217 515.464 88.970 507.323 C 85.488 501.920 82.158 497.169 81.570 496.765 C 80.981 496.361 80.841 496.024 81.258 496.015 C 81.675 496.007 79.506 490.993 76.437 484.874 C 66.945 465.949 60.135 445.490 55.341 421.500 C 53.657 413.073 53.524 401.149 53.250 234.250 L 52.957 56.000 373.979 56.000 L 695.000 56.000 694.994 231.250 "/></g>
<g fill="#1A3E4AFE" stroke="#1A3E4AFE">
<path d="M 53.250 234.250 C 53.524 401.149 53.657 413.073 55.341 421.500 C 60.292 446.273 66.901 465.848 77.363 486.727 C 114.661 561.159 187.025 608.846 288.500 625.865 C 318.258 630.855 337.722 632.370 373.000 632.438 C 422.877 632.536 461.039 627.856 502.006 616.619 C 608.307 587.461 678.824 513.747 693.487 416.458 C 694.778 407.894 694.989 381.964 694.994 231.250 L 695.000 56.000 373.979 56.000 L 52.957 56.000 53.250 234.250 M 683.640 99.924 C 688.591 102.172 690.573 106.696 689.561 113.439 C 688.788 118.593 685.700 121.817 680.347 123.060 C 678.231 123.551 632.063 123.963 577.750 123.976 L 479.000 124.000 479.000 207.390 L 479.000 290.780 486.859 287.382 C 491.181 285.513 497.369 283.451 500.609 282.800 C 510.049 280.902 541.743 281.219 553.000 283.323 C 579.565 288.289 618.964 300.204 622.990 304.489 C 627.889 309.704 626.105 321.343 619.915 324.544 C 616.006 326.566 615.118 326.460 602.251 322.444 C 542.079 303.659 503.267 301.616 487.180 316.385 C 478.510 324.345 479.047 318.561 479.022 404.250 L 479.000 480.000 474.250 480.006 C 471.638 480.009 465.788 480.301 461.250 480.654 L 453.000 481.296 453.000 294.099 C 453.000 87.123 452.504 102.426 459.315 99.464 C 461.964 98.312 480.773 98.075 571.000 98.061 C 675.075 98.045 679.669 98.121 683.640 99.924 M 343.000 101.324 C 361.931 105.094 374.504 109.082 386.118 115.000 C 398.223 121.167 417.000 135.726 417.000 138.943 C 417.000 139.433 417.338 139.983 417.750 140.167 C 421.364 141.773 433.007 162.840 437.278 175.500 C 442.849 192.017 444.537 217.973 441.524 240.814 C 440.139 251.319 436.016 266.328 433.933 268.450 C 433.420 268.973 433.000 269.962 433.000 270.650 C 433.000 271.337 431.650 273.900 430.000 276.345 C 428.350 278.790 427.000 281.125 427.000 281.534 C 427.000 282.802 416.435 295.263 411.340 300.005 C 405.560 305.384 395.472 313.000 394.126 313.000 C 393.598 313.000 393.017 313.355 392.833 313.789 C 391.444 317.081 362.637 330.579 348.500 334.563 C 340.975 336.683 325.073 339.242 323.403 338.601 C 322.209 338.143 321.985 336.009 322.216 327.277 L 322.500 316.518 329.000 315.189 C 352.030 310.481 364.938 305.475 380.001 295.411 C 386.145 291.307 397.721 280.880 401.001 276.497 C 401.825 275.395 403.966 272.626 405.757 270.344 C 414.477 259.234 420.218 238.543 420.279 218.000 C 420.300 211.125 419.796 201.980 419.158 197.678 C 417.947 189.497 412.493 171.679 410.585 169.668 C 409.975 169.026 408.976 167.375 408.364 166.000 C 406.480 161.766 398.030 151.155 394.678 148.814 C 392.930 147.594 390.825 145.892 390.000 145.034 C 386.634 141.530 373.640 134.231 365.571 131.312 C 354.070 127.152 336.466 123.745 317.500 122.009 C 289.244 119.422 239.106 122.534 228.583 127.527 L 225.000 129.228 224.994 299.364 C 224.991 413.358 224.648 470.728 223.956 473.221 C 223.387 475.267 221.940 477.629 220.739 478.471 C 216.340 481.552 205.208 479.591 203.621 475.455 C 203.280 474.565 203.000 394.600 203.000 297.756 L 203.000 121.676 205.504 117.403 C 208.038 113.078 210.522 110.902 217.168 107.180 C 223.147 103.832 230.317 102.152 243.791 100.943 C 250.781 100.315 256.725 99.578 257.000 99.305 C 257.275 99.032 275.050 99.038 296.500 99.319 C 325.329 99.697 337.456 100.219 343.000 101.324 M 162.500 100.257 C 163.600 100.803 165.513 102.172 166.750 103.299 L 169.000 105.349 169.000 288.952 C 169.000 457.076 168.863 472.751 167.369 474.883 C 165.233 477.933 160.114 480.005 154.782 479.978 C 149.904 479.952 146.989 478.040 144.608 473.300 C 143.148 470.395 143.000 453.414 143.002 289.300 C 143.003 119.174 143.106 108.293 144.752 105.000 C 147.848 98.801 155.469 96.765 162.500 100.257 M 517.662 547.446 L 520.824 551.682 527.522 550.784 C 531.206 550.291 534.431 550.097 534.688 550.354 C 534.945 550.611 533.679 553.572 531.874 556.933 L 528.593 563.045 531.787 569.523 C 535.332 576.711 535.421 576.620 526.604 574.849 L 520.875 573.699 516.153 578.349 C 513.556 580.907 511.137 583.000 510.776 583.000 C 510.416 583.000 509.809 579.835 509.428 575.967 L 508.735 568.934 503.194 565.696 C 500.146 563.916 497.500 561.999 497.313 561.438 C 497.125 560.876 499.632 559.236 502.884 557.792 C 508.536 555.283 508.825 554.977 509.451 550.834 C 510.895 541.291 511.012 540.989 512.822 542.141 C 513.745 542.729 515.923 545.117 517.662 547.446 M 294.762 563.250 L 296.596 569.500 302.734 571.500 C 306.109 572.600 309.137 573.774 309.462 574.110 C 309.787 574.445 307.566 576.597 304.527 578.892 L 299.000 583.065 299.000 590.564 L 299.000 598.063 293.453 593.966 L 287.907 589.868 281.389 592.037 C 277.805 593.230 274.729 594.047 274.554 593.853 C 274.379 593.659 275.148 590.468 276.263 586.763 L 278.290 580.025 274.218 574.799 C 271.978 571.925 270.365 569.219 270.632 568.787 C 270.899 568.354 274.003 568.000 277.528 568.000 L 283.939 568.000 287.457 562.500 C 289.392 559.475 291.415 557.000 291.952 557.000 C 292.489 557.000 293.754 559.813 294.762 563.250 M 250.184 556.500 C 251.547 561.332 251.802 561.584 257.786 564.000 C 261.191 565.375 263.983 566.807 263.989 567.182 C 263.995 567.558 261.351 569.321 258.113 571.101 L 252.225 574.338 251.552 581.169 C 251.182 584.926 250.649 588.000 250.369 588.000 C 250.088 588.000 247.629 586.120 244.904 583.822 L 239.948 579.643 233.426 580.940 C 229.838 581.653 226.681 582.014 226.409 581.742 C 226.138 581.471 227.072 578.634 228.485 575.438 L 231.055 569.628 227.527 563.913 C 225.587 560.770 224.000 557.955 224.000 557.657 C 224.000 557.360 227.182 557.383 231.072 557.709 L 238.143 558.302 242.770 553.013 C 247.906 547.142 247.491 546.947 250.184 556.500 M 207.493 536.750 C 208.636 545.561 208.638 545.564 214.983 548.412 C 218.292 549.897 221.000 551.469 221.000 551.906 C 221.000 552.343 218.123 553.923 214.607 555.417 L 208.214 558.134 207.515 563.724 C 206.396 572.682 206.300 572.728 200.531 567.031 L 195.338 561.902 188.919 562.943 C 185.389 563.516 182.121 563.988 181.658 563.992 C 181.195 563.997 182.374 561.167 184.277 557.705 L 187.737 551.409 184.802 545.605 C 183.188 542.412 182.097 539.569 182.379 539.288 C 182.661 539.006 185.920 539.303 189.622 539.948 L 196.354 541.120 200.914 536.560 C 203.422 534.052 205.790 532.000 206.176 532.000 C 206.562 532.000 207.155 534.138 207.493 536.750 M 560.173 531.145 L 565.124 535.290 570.812 534.018 C 573.940 533.318 577.135 532.501 577.911 532.204 C 579.585 531.562 579.220 533.131 575.961 540.593 L 573.736 545.686 577.361 551.093 L 580.986 556.500 573.734 556.460 L 566.481 556.421 561.991 561.641 C 559.521 564.512 557.226 566.555 556.892 566.181 C 556.557 565.806 555.724 562.760 555.039 559.411 C 553.805 553.371 553.756 553.307 549.003 551.598 C 546.368 550.651 543.411 549.289 542.431 548.573 C 540.824 547.398 541.249 546.943 546.814 543.886 C 552.601 540.706 552.977 540.279 552.988 536.875 C 553.002 532.727 554.015 527.000 554.736 527.000 C 555.004 527.000 557.450 528.865 560.173 531.145 M 428.085 567.250 C 429.897 570.138 431.449 572.618 431.535 572.762 C 431.620 572.906 434.954 573.356 438.944 573.762 L 446.198 574.500 441.968 579.808 L 437.737 585.117 439.745 591.808 C 440.849 595.489 441.419 598.630 441.011 598.788 C 440.603 598.947 437.942 598.160 435.098 597.038 C 432.253 595.917 429.331 595.000 428.604 595.000 C 427.876 595.000 425.306 596.571 422.891 598.490 C 420.476 600.410 418.163 601.985 417.750 601.990 C 417.338 601.996 417.000 598.865 417.000 595.032 L 417.000 588.065 411.473 583.892 C 408.434 581.597 406.220 579.445 406.553 579.110 C 406.886 578.774 409.919 577.600 413.292 576.500 L 419.425 574.500 421.405 568.250 C 422.494 564.813 423.702 562.000 424.088 562.000 C 424.475 562.000 426.274 564.363 428.085 567.250 M 385.407 570.806 L 388.256 576.767 395.128 577.444 C 398.908 577.816 402.000 578.416 402.000 578.776 C 402.000 579.137 399.898 581.566 397.328 584.174 L 392.657 588.917 393.697 595.708 C 394.269 599.444 394.616 602.642 394.469 602.815 C 394.323 602.989 391.415 601.724 388.008 600.004 L 381.814 596.877 375.821 600.447 L 369.828 604.017 370.540 596.415 L 371.253 588.813 366.456 584.410 C 363.819 581.988 361.903 579.763 362.200 579.467 C 362.497 579.170 365.565 578.402 369.018 577.759 L 375.296 576.592 378.243 570.295 C 379.863 566.832 381.497 564.189 381.874 564.422 C 382.250 564.655 383.840 567.527 385.407 570.806 M 340.492 568.825 C 342.487 574.462 342.541 574.513 348.693 576.500 C 352.100 577.600 354.830 578.950 354.760 579.500 C 354.690 580.050 352.467 582.225 349.818 584.334 L 345.003 588.167 345.252 595.118 L 345.500 602.069 339.500 598.221 L 333.500 594.372 327.631 596.734 C 324.403 598.033 321.516 598.850 321.216 598.550 C 320.916 598.250 321.430 595.276 322.357 591.941 C 324.185 585.365 324.199 585.425 319.321 579.397 C 317.494 577.140 316.000 575.003 316.000 574.647 C 316.000 574.291 319.039 574.000 322.753 574.000 L 329.506 574.000 333.319 567.900 C 335.416 564.544 337.436 562.103 337.808 562.474 C 338.179 562.846 339.387 565.704 340.492 568.825 M 478.289 563.534 C 478.955 563.329 481.863 562.885 484.750 562.546 C 491.026 561.811 491.195 562.337 486.915 569.292 L 483.830 574.306 486.544 580.691 C 488.036 584.203 489.066 587.267 488.832 587.501 C 488.598 587.735 485.953 587.273 482.953 586.475 C 479.954 585.677 477.050 585.028 476.500 585.034 C 475.950 585.040 473.265 587.085 470.533 589.580 C 464.839 594.781 464.194 594.362 464.070 585.389 L 464.000 580.279 458.000 577.081 C 454.700 575.322 452.000 573.518 452.000 573.072 C 452.000 572.626 454.660 571.108 457.911 569.698 C 463.862 567.117 464.278 566.585 465.500 560.000 C 466.917 552.360 466.809 552.387 472.135 558.362 C 474.853 561.412 477.623 563.740 478.289 563.534 "/></g>
<g fill="#FCEED4FE" stroke="#FCEED4FE">
<path d="M 459.315 99.464 C 452.504 102.426 453.000 87.123 453.000 294.099 L 453.000 481.296 461.250 480.654 C 465.788 480.301 471.638 480.009 474.250 480.006 L 479.000 480.000 479.026 404.250 C 479.050 334.663 479.193 328.202 480.776 324.836 C 488.844 307.685 511.819 302.707 551.319 309.554 C 562.618 311.512 587.003 317.683 602.251 322.444 C 615.118 326.460 616.006 326.566 619.915 324.544 C 626.105 321.343 627.889 309.704 622.990 304.489 C 618.964 300.204 579.565 288.289 553.000 283.323 C 541.743 281.219 510.049 280.902 500.609 282.800 C 497.369 283.451 491.181 285.513 486.859 287.382 L 479.000 290.780 479.000 207.390 L 479.000 124.000 577.750 123.976 C 632.063 123.963 678.231 123.551 680.347 123.060 C 685.700 121.817 688.788 118.593 689.561 113.439 C 690.573 106.696 688.591 102.172 683.640 99.924 C 679.669 98.121 675.075 98.045 571.000 98.061 C 480.773 98.075 461.964 98.312 459.315 99.464 "/></g>
<g fill="#009A00FE" stroke="#009A00FE">
<path d="M 261.500 99.651 C 241.139 101.255 231.746 102.355 227.500 103.633 C 215.328 107.298 207.566 113.008 204.375 120.645 C 203.226 123.394 203.000 152.658 203.000 298.534 C 203.000 416.371 203.335 473.757 204.030 475.055 C 206.746 480.132 216.086 481.550 220.694 477.587 L 223.500 475.173 224.000 302.622 C 224.459 144.362 224.636 129.935 226.142 128.429 C 228.629 125.942 237.676 124.196 257.000 122.472 C 299.001 118.725 339.481 121.780 364.016 130.549 C 399.875 143.365 418.517 169.651 420.681 210.453 C 421.543 226.712 418.384 246.524 412.974 258.782 C 407.943 270.181 389.605 291.112 380.696 295.623 C 378.938 296.513 376.825 297.815 376.000 298.517 C 370.029 303.594 348.524 311.709 333.000 314.745 L 323.500 316.602 323.217 327.783 L 322.935 338.963 325.717 338.498 C 345.198 335.242 347.789 334.598 362.000 329.488 C 369.153 326.916 387.238 317.592 394.061 312.959 C 403.075 306.837 403.591 306.402 413.582 296.501 C 426.621 283.580 433.058 272.763 438.600 254.461 C 441.144 246.062 441.342 244.015 441.760 221.812 C 442.344 190.788 440.547 181.109 430.334 160.270 C 413.023 124.947 379.343 105.021 328.576 100.066 C 318.871 99.119 271.946 98.829 261.500 99.651 "/></g>
<g fill="#FCEED4FE" stroke="#FCEED4FE">
<path d="M 150.000 99.752 C 147.997 100.753 145.752 102.997 144.752 105.000 C 143.106 108.293 143.003 119.174 143.002 289.300 C 143.000 453.414 143.148 470.395 144.608 473.300 C 146.989 478.040 149.904 479.952 154.782 479.978 C 160.114 480.005 165.233 477.933 167.369 474.883 C 168.863 472.751 169.000 457.076 169.000 288.952 L 169.000 105.349 166.750 103.299 C 161.596 98.605 155.067 97.222 150.000 99.752 "/></g>
<g fill="#FCEED4FE" stroke="#FCEED4FE">
<path d="M 510.625 543.786 C 510.340 545.279 509.812 548.450 509.451 550.834 C 508.825 554.977 508.536 555.283 502.884 557.792 C 499.632 559.236 497.125 560.876 497.313 561.438 C 497.500 561.999 500.146 563.916 503.194 565.696 L 508.735 568.934 509.428 575.967 C 509.809 579.835 510.450 583.000 510.852 583.000 C 511.255 583.000 513.590 580.946 516.042 578.435 C 520.384 573.989 520.617 573.889 525.000 574.590 C 527.475 574.986 530.710 575.418 532.189 575.551 L 534.879 575.792 531.736 569.419 L 528.593 563.045 531.874 556.933 C 533.679 553.572 534.945 550.611 534.688 550.354 C 534.431 550.097 531.206 550.291 527.522 550.784 L 520.824 551.682 517.662 547.446 C 515.923 545.117 513.745 542.729 512.822 542.141 C 511.425 541.252 511.056 541.528 510.625 543.786 "/></g>
<g fill="#FCEED4FE" stroke="#FCEED4FE">
<path d="M 287.457 562.500 L 283.939 568.000 277.528 568.000 C 274.003 568.000 270.899 568.354 270.632 568.787 C 270.365 569.219 271.978 571.925 274.218 574.799 L 278.290 580.025 276.263 586.763 C 275.148 590.468 274.379 593.659 274.554 593.853 C 274.729 594.047 277.805 593.230 281.389 592.037 L 287.907 589.868 293.453 593.966 L 299.000 598.063 299.000 590.564 L 299.000 583.065 304.490 578.920 C 307.509 576.641 309.764 574.427 309.501 574.002 C 309.238 573.576 306.093 572.435 302.512 571.466 C 298.930 570.496 296.000 569.177 296.000 568.533 C 296.000 565.944 292.858 557.000 291.949 557.000 C 291.413 557.000 289.392 559.475 287.457 562.500 "/></g>
<g fill="#FCEED4FE" stroke="#FCEED4FE">
<path d="M 242.822 553.038 L 238.143 558.302 231.072 557.709 C 227.182 557.383 224.000 557.360 224.000 557.657 C 224.000 557.955 225.587 560.770 227.527 563.913 L 231.055 569.628 228.527 575.342 C 227.137 578.485 226.000 581.224 226.000 581.429 C 226.000 581.895 230.198 581.496 235.779 580.499 C 239.813 579.779 240.337 579.971 244.958 583.868 C 247.653 586.140 250.088 588.000 250.369 588.000 C 250.649 588.000 251.182 584.926 251.552 581.169 L 252.225 574.338 258.113 571.101 C 261.351 569.321 264.000 567.555 264.000 567.177 C 264.000 566.799 261.271 565.431 257.935 564.138 C 251.589 561.677 250.450 560.245 249.281 553.250 C 248.983 551.463 248.347 550.000 247.869 550.000 C 247.391 550.000 247.113 549.499 247.250 548.887 C 247.388 548.274 245.395 550.142 242.822 553.038 "/></g>
<g fill="#FCEED4FE" stroke="#FCEED4FE">
<path d="M 200.914 536.560 L 196.354 541.120 189.622 539.948 C 185.920 539.303 182.661 539.006 182.379 539.288 C 182.097 539.569 183.188 542.412 184.802 545.605 L 187.737 551.409 184.277 557.705 C 182.374 561.167 181.195 563.997 181.658 563.992 C 182.121 563.988 185.389 563.516 188.919 562.943 L 195.338 561.902 200.531 567.031 C 206.300 572.728 206.396 572.682 207.515 563.724 L 208.214 558.134 214.607 555.417 C 218.123 553.923 221.000 552.343 221.000 551.906 C 221.000 551.469 218.292 549.897 214.983 548.412 C 208.638 545.564 208.636 545.561 207.493 536.750 C 207.155 534.138 206.562 532.000 206.176 532.000 C 205.790 532.000 203.422 534.052 200.914 536.560 "/></g>
<g fill="#FCEED4FE" stroke="#FCEED4FE">
<path d="M 553.625 530.125 C 553.281 531.844 552.995 534.881 552.988 536.875 C 552.977 540.279 552.601 540.706 546.814 543.886 C 541.249 546.943 540.824 547.398 542.431 548.573 C 543.411 549.289 546.368 550.651 549.003 551.598 C 553.756 553.307 553.805 553.371 555.039 559.411 C 556.569 566.897 557.266 567.769 559.272 564.708 C 560.135 563.390 562.149 561.005 563.747 559.406 C 566.414 556.738 567.240 556.500 573.824 556.500 L 580.995 556.500 577.365 551.093 L 573.736 545.686 575.961 540.593 C 579.220 533.131 579.585 531.562 577.911 532.204 C 577.135 532.501 573.940 533.318 570.812 534.018 L 565.124 535.290 560.173 531.145 C 557.450 528.865 555.004 527.000 554.736 527.000 C 554.469 527.000 553.969 528.406 553.625 530.125 "/></g>
<g fill="#FCEED4FE" stroke="#FCEED4FE">
<path d="M 421.405 568.250 L 419.425 574.500 413.292 576.500 C 409.919 577.600 406.886 578.774 406.553 579.110 C 406.220 579.445 408.434 581.597 411.473 583.892 L 417.000 588.065 417.000 595.032 C 417.000 598.865 417.338 601.996 417.750 601.990 C 418.163 601.985 420.476 600.410 422.891 598.490 C 428.020 594.413 428.338 594.374 435.000 597.000 C 441.531 599.574 442.359 599.539 440.866 596.750 C 440.204 595.513 439.828 594.500 440.031 594.500 C 440.234 594.500 439.807 592.381 439.082 589.792 L 437.763 585.083 441.981 579.792 L 446.198 574.500 438.944 573.762 C 434.954 573.356 431.620 572.906 431.535 572.762 C 428.291 567.298 424.625 562.000 424.088 562.000 C 423.702 562.000 422.494 564.813 421.405 568.250 "/></g>
<g fill="#FCEED4FE" stroke="#FCEED4FE">
<path d="M 378.243 570.295 L 375.296 576.592 369.018 577.759 C 365.565 578.402 362.497 579.170 362.200 579.467 C 361.903 579.763 363.794 581.965 366.401 584.358 L 371.141 588.711 370.630 596.605 C 370.174 603.642 370.275 604.289 371.559 602.559 C 372.352 601.491 373.000 600.948 373.000 601.351 C 373.000 601.754 374.992 600.917 377.426 599.490 L 381.852 596.897 388.027 600.014 C 391.424 601.728 394.323 602.989 394.469 602.815 C 394.616 602.642 394.269 599.444 393.697 595.708 L 392.657 588.917 397.328 584.174 C 399.898 581.566 402.000 579.137 402.000 578.776 C 402.000 578.416 398.908 577.816 395.128 577.444 L 388.256 576.767 385.407 570.806 C 383.840 567.527 382.250 564.655 381.874 564.422 C 381.497 564.189 379.863 566.832 378.243 570.295 "/></g>
<g fill="#FCEED4FE" stroke="#FCEED4FE">
<path d="M 333.332 567.879 L 329.506 574.000 322.753 574.000 C 319.039 574.000 316.000 574.291 316.000 574.647 C 316.000 575.003 317.494 577.140 319.321 579.397 C 324.199 585.425 324.185 585.365 322.357 591.941 C 321.430 595.276 320.916 598.250 321.216 598.550 C 321.516 598.850 324.403 598.033 327.631 596.734 L 333.500 594.372 339.500 598.221 L 345.500 602.069 345.250 595.093 L 345.000 588.118 350.479 583.838 C 353.493 581.484 355.630 579.258 355.229 578.890 C 354.828 578.522 351.895 577.479 348.711 576.571 C 344.180 575.280 342.663 574.332 341.731 572.211 C 341.076 570.720 340.307 569.275 340.020 569.000 C 339.734 568.725 339.375 567.385 339.221 566.021 C 338.683 561.238 337.188 561.710 333.332 567.879 "/></g>
<g fill="#FCEED4FE" stroke="#FCEED4FE">
<path d="M 466.671 554.659 C 466.384 555.671 465.857 558.075 465.500 560.000 C 464.278 566.585 463.862 567.117 457.911 569.698 C 454.660 571.108 452.000 572.626 452.000 573.072 C 452.000 573.518 454.700 575.322 458.000 577.081 L 464.000 580.279 464.070 585.389 C 464.194 594.362 464.839 594.781 470.533 589.580 C 473.265 587.085 475.950 585.040 476.500 585.034 C 477.050 585.028 479.954 585.677 482.953 586.475 C 485.953 587.273 488.561 587.773 488.748 587.585 C 488.936 587.398 487.917 584.315 486.484 580.736 L 483.878 574.228 486.939 569.253 C 491.193 562.340 491.020 561.812 484.750 562.546 C 481.863 562.885 478.955 563.329 478.289 563.534 C 477.623 563.740 474.853 561.412 472.135 558.362 C 468.064 553.794 467.101 553.142 466.671 554.659 "/></g>
<g fill="#FCEED4FE" stroke="#FCEED4FE">
<path d="M 690.000 513.118 C 681.398 527.556 680.577 529.247 686.076 521.198 C 691.017 513.966 697.328 502.981 696.816 502.503 C 696.642 502.341 693.575 507.118 690.000 513.118 "/></g>
<g fill="#FCEED4FE" stroke="#FCEED4FE">
<path d="M 70.000 533.357 C 70.000 533.789 70.563 534.720 71.250 535.426 C 71.938 536.132 75.172 540.141 78.437 544.334 C 81.703 548.527 84.565 551.768 84.798 551.536 C 85.030 551.303 82.398 547.600 78.948 543.306 C 71.312 533.804 70.000 532.345 70.000 533.357 "/></g>
<g fill="#006C12FE" stroke="#006C12FE">
<path d="M 322.643 316.690 C 322.289 317.044 322.085 322.096 322.190 327.917 L 322.380 338.500 322.833 327.273 C 323.082 321.099 322.997 316.336 322.643 316.690 "/></g>
<g fill="#FCEED4FE" stroke="#FCEED4FE">
<path d="M 675.500 535.817 C 671.535 541.116 671.271 541.672 674.224 538.500 C 676.271 536.300 678.521 533.293 679.224 531.817 C 679.926 530.341 678.250 532.141 675.500 535.817 "/></g>
<g fill="#006C12FE" stroke="#006C12FE">
<path d="M 410.443 132.780 C 413.711 136.172 416.555 138.778 416.763 138.570 C 417.181 138.153 409.505 130.333 406.442 128.056 C 405.374 127.262 407.174 129.387 410.443 132.780 "/></g>
<g fill="#FCEED4FE" stroke="#FCEED4FE">
<path d="M 641.359 574.032 L 636.500 578.564 641.359 574.032 L 646.219 569.500 641.359 574.032 "/></g>
<g fill="#FCEED4FE" stroke="#FCEED4FE">
<path d="M 86.000 553.125 C 86.000 554.115 93.992 562.342 94.479 561.854 C 94.743 561.591 92.943 559.397 90.479 556.979 C 88.016 554.562 86.000 552.827 86.000 553.125 "/></g>
<g fill="#FCEED4FE" stroke="#FCEED4FE">
<path d="M 59.584 517.500 C 61.087 520.250 62.950 523.175 63.723 524.000 C 65.673 526.080 61.356 518.075 58.870 515.000 C 57.500 513.305 57.729 514.109 59.584 517.500 "/></g>
<g fill="#FCEED4FE" stroke="#FCEED4FE">
<path d="M 50.712 501.750 C 51.420 503.657 57.352 513.133 56.817 511.500 C 56.161 509.501 50.954 500.000 50.515 500.000 C 50.266 500.000 50.355 500.788 50.712 501.750 "/></g>
</svg>
